<svg xmlns="http://www.w3.org/2000/svg" xmlns:xlink="http://www.w3.org/1999/xlink" width="512" zoomAndPan="magnify" viewBox="0 0 384 383.999986" height="512" preserveAspectRatio="xMidYMid meet" version="1.0"><defs><clipPath id="339455b906"><path d="M 34.582031 51.46875 L 349.582031 51.46875 L 349.582031 332.71875 L 34.582031 332.71875 Z M 34.582031 51.46875 " clip-rule="nonzero"/></clipPath></defs><path fill="#1f48ff" d="M 343.800781 216.429688 L 343.800781 276.304688 L 338.132812 287.574219 L 332.53125 293.179688 L 321.324219 293.179688 L 315.65625 287.574219 L 310.054688 281.972656 L 310.054688 236.953125 L 304.449219 231.351562 L 298.78125 225.746094 L 293.179688 231.351562 L 287.574219 236.953125 L 287.574219 276.304688 L 281.972656 287.574219 L 273.285156 291.039062 L 256.914062 294.878906 L 253.828125 307.410156 L 248.222656 321.324219 L 242.621094 329.507812 L 222.914062 329.507812 L 214.476562 321.324219 L 208.875 315.65625 L 214.476562 298.847656 L 220.082031 293.179688 L 253.828125 293.179688 L 253.828125 272.78125 L 248.222656 265.097656 L 244.761719 259.496094 L 139.238281 259.496094 L 135.773438 265.097656 L 130.171875 272.78125 L 130.171875 293.179688 L 163.917969 293.179688 L 169.523438 298.847656 L 175.125 315.65625 L 169.523438 321.324219 L 161.085938 329.507812 L 141.378906 329.507812 L 135.773438 321.324219 L 130.171875 307.410156 L 127.085938 294.878906 L 110.714844 291.039062 L 102.027344 287.574219 L 96.421875 276.304688 L 96.421875 236.953125 L 85.214844 225.746094 L 79.550781 231.351562 L 73.945312 236.953125 L 73.945312 281.972656 L 68.34375 287.574219 L 62.675781 293.179688 L 51.46875 293.179688 L 45.863281 287.574219 L 40.199219 276.304688 L 40.199219 216.429688 L 45.863281 208.875 L 60.03125 203.269531 L 68.34375 197.601562 L 79.550781 175.125 L 90.820312 163.917969 L 102.027344 141.441406 L 107.691406 130.171875 L 113.296875 107.691406 L 116.128906 96.421875 L 111.472656 90.820312 L 102.027344 85.214844 L 96.421875 77.785156 L 96.421875 68.34375 L 102.027344 62.738281 L 111.09375 57.070312 L 124.566406 62.738281 L 130.171875 70.167969 L 124.566406 85.214844 L 121.355469 94.15625 L 122.488281 100.265625 L 135.773438 107.691406 L 147.042969 130.171875 L 151.074219 134.136719 L 192 135.773438 L 232.925781 134.136719 L 236.953125 130.171875 L 248.222656 107.691406 L 261.507812 100.265625 L 262.644531 94.15625 L 259.433594 85.214844 L 253.828125 70.167969 L 259.433594 62.738281 L 272.90625 57.070312 L 281.972656 62.738281 L 287.574219 68.34375 L 287.574219 77.785156 L 281.972656 85.214844 L 272.527344 90.820312 L 267.867188 96.421875 L 270.703125 107.691406 L 276.304688 130.171875 L 281.972656 141.441406 L 293.179688 163.917969 L 304.449219 175.125 L 315.65625 197.601562 L 323.96875 203.269531 L 338.132812 208.875 Z M 343.800781 216.429688 " fill-opacity="1" fill-rule="nonzero"/><path fill="#f7f7f0" d="M 113.296875 107.691406 L 124.566406 107.691406 L 124.566406 141.441406 L 113.296875 141.441406 Z M 113.296875 62.738281 L 102.027344 62.738281 L 102.027344 74.007812 L 113.296875 74.007812 Z M 102.027344 152.648438 L 102.027344 163.917969 L 90.820312 163.917969 L 90.820312 175.125 L 79.550781 175.125 L 79.550781 186.394531 L 90.820312 186.394531 L 90.820312 175.1875 L 102.089844 175.1875 L 102.089844 163.917969 L 113.296875 163.917969 L 113.296875 141.441406 L 102.027344 141.441406 Z M 259.433594 62.738281 L 259.433594 74.007812 L 270.703125 74.007812 L 270.703125 62.738281 Z M 259.433594 62.738281 " fill-opacity="1" fill-rule="nonzero"/><g clip-path="url(#339455b906)"><path fill="#00167a" d="M 135.773438 163.917969 L 147.042969 163.917969 L 147.042969 208.875 L 135.773438 208.875 Z M 236.953125 175.125 L 236.953125 208.875 L 248.222656 208.875 L 248.222656 163.917969 L 236.953125 163.917969 Z M 124.566406 62.738281 L 124.566406 51.46875 L 102.027344 51.46875 L 102.027344 62.738281 Z M 124.566406 85.214844 L 135.773438 85.214844 L 135.773438 62.738281 L 124.566406 62.738281 Z M 102.027344 62.738281 L 90.820312 62.738281 L 90.820312 85.214844 L 102.027344 85.214844 L 102.027344 73.945312 C 102.027344 73.945312 102.027344 62.738281 102.027344 62.738281 Z M 135.773438 107.691406 L 135.773438 96.421875 L 124.566406 96.421875 L 124.566406 85.214844 L 102.027344 85.214844 L 102.027344 96.421875 L 113.296875 96.421875 L 113.296875 107.691406 L 124.566406 107.691406 C 124.566406 107.691406 135.773438 107.691406 135.773438 107.691406 Z M 135.773438 130.171875 L 147.042969 130.171875 L 147.042969 107.691406 L 135.773438 107.691406 Z M 113.296875 130.171875 L 113.296875 107.691406 L 102.027344 107.691406 L 102.027344 141.441406 L 113.296875 141.441406 Z M 102.027344 152.648438 L 102.027344 141.441406 L 90.820312 141.441406 L 90.820312 163.917969 L 102.027344 163.917969 C 102.027344 163.917969 102.027344 152.648438 102.027344 152.648438 Z M 79.550781 186.394531 L 79.550781 175.1875 L 90.820312 175.1875 L 90.820312 163.917969 L 79.550781 163.917969 L 79.550781 175.125 L 68.34375 175.125 L 68.34375 197.601562 L 79.550781 197.601562 C 79.550781 197.601562 79.550781 186.394531 79.550781 186.394531 Z M 158.25 141.441406 L 236.953125 141.441406 L 236.953125 130.171875 L 147.042969 130.171875 L 147.042969 141.441406 Z M 68.34375 208.875 L 68.34375 197.601562 L 45.863281 197.601562 L 45.863281 208.875 Z M 45.863281 265.097656 L 45.863281 208.875 L 34.59375 208.875 L 34.59375 287.574219 L 45.863281 287.574219 Z M 102.027344 265.097656 L 102.027344 231.351562 L 90.820312 231.351562 L 90.820312 220.144531 L 79.550781 220.144531 L 79.550781 231.351562 L 68.34375 231.351562 L 68.34375 287.574219 L 79.550781 287.574219 L 79.550781 231.414062 L 90.820312 231.414062 L 90.820312 287.574219 L 102.027344 287.574219 L 102.027344 276.304688 C 102.027344 276.304688 102.027344 265.097656 102.027344 265.097656 Z M 45.863281 287.574219 L 45.863281 298.847656 L 68.34375 298.847656 L 68.34375 287.574219 Z M 124.566406 276.304688 L 124.566406 287.574219 L 102.027344 287.574219 L 102.027344 298.847656 L 124.566406 298.847656 L 124.566406 321.324219 L 135.773438 321.324219 L 135.773438 298.847656 L 169.523438 298.847656 L 169.523438 287.574219 L 135.773438 287.574219 L 135.773438 265.097656 L 124.566406 265.097656 Z M 169.523438 321.324219 L 180.730469 321.324219 L 180.730469 298.847656 L 169.523438 298.847656 Z M 147.042969 321.324219 L 135.773438 321.324219 L 135.773438 332.53125 L 169.523438 332.53125 L 169.523438 321.324219 Z M 281.972656 62.738281 L 281.972656 51.46875 L 259.433594 51.46875 L 259.433594 62.738281 Z M 281.972656 85.214844 L 293.179688 85.214844 L 293.179688 62.738281 L 281.972656 62.738281 Z M 259.433594 62.738281 L 248.222656 62.738281 L 248.222656 85.214844 L 259.433594 85.214844 Z M 270.703125 107.691406 L 270.703125 96.421875 L 281.972656 96.421875 L 281.972656 85.214844 L 259.433594 85.214844 L 259.433594 96.421875 L 248.222656 96.421875 L 248.222656 107.691406 L 259.433594 107.691406 C 259.433594 107.691406 270.703125 107.691406 270.703125 107.691406 Z M 270.703125 130.171875 L 270.703125 141.441406 L 281.972656 141.441406 L 281.972656 107.691406 L 270.703125 107.691406 Z M 248.222656 118.902344 L 248.222656 107.691406 L 236.953125 107.691406 L 236.953125 130.171875 L 248.222656 130.171875 Z M 281.972656 163.917969 L 293.179688 163.917969 L 293.179688 141.441406 L 281.972656 141.441406 Z M 304.449219 175.1875 L 304.449219 197.601562 L 315.65625 197.601562 L 315.65625 175.125 L 304.449219 175.1875 L 304.449219 163.917969 L 293.179688 163.917969 L 293.179688 175.1875 Z M 326.925781 208.875 L 338.132812 208.875 L 338.132812 197.601562 L 315.65625 197.601562 L 315.65625 208.875 Z M 338.132812 208.875 L 338.132812 287.574219 L 349.40625 287.574219 L 349.40625 208.875 Z M 315.65625 265.097656 L 315.65625 231.351562 L 304.449219 231.351562 L 304.449219 220.144531 L 293.179688 220.144531 L 293.179688 231.351562 L 281.972656 231.351562 L 281.972656 287.574219 L 293.179688 287.574219 L 293.179688 231.414062 L 304.449219 231.414062 L 304.449219 287.574219 L 315.65625 287.574219 Z M 315.65625 287.574219 L 315.65625 298.847656 L 338.132812 298.847656 L 338.132812 287.574219 Z M 259.433594 287.574219 L 259.433594 265.097656 L 248.222656 265.097656 L 248.222656 287.574219 L 214.476562 287.574219 L 214.476562 298.847656 L 248.222656 298.847656 L 248.222656 321.324219 L 259.433594 321.324219 L 259.433594 298.847656 L 281.972656 298.847656 L 281.972656 287.574219 Z M 236.953125 253.828125 L 135.773438 253.828125 L 135.773438 265.097656 L 248.222656 265.097656 L 248.222656 253.828125 Z M 214.476562 298.847656 L 203.269531 298.847656 L 203.269531 321.324219 L 214.476562 321.324219 Z M 225.746094 321.324219 L 214.476562 321.324219 L 214.476562 332.53125 L 248.222656 332.53125 L 248.222656 321.324219 Z M 225.746094 321.324219 " fill-opacity="1" fill-rule="nonzero"/></g></svg>