<svg xmlns="http://www.w3.org/2000/svg" xmlns:xlink="http://www.w3.org/1999/xlink" width="512" zoomAndPan="magnify" viewBox="0 0 384 383.999986" height="512" preserveAspectRatio="xMidYMid meet" version="1.0"><path fill="#1f48ff" d="M 193.5 -31.433594 C 193.5 185.929688 195.015625 189.367188 249.355469 95.246094 C 195.015625 189.367188 198.75 188.960938 386.992188 80.28125 C 198.75 188.960938 196.53125 191.992188 305.210938 191.992188 C 196.53125 191.992188 198.75 195.023438 386.992188 303.707031 C 198.75 195.023438 195.015625 194.617188 249.355469 288.738281 C 195.015625 194.617188 193.5 198.054688 193.5 415.417969 C 193.5 198.054688 191.984375 194.617188 137.640625 288.738281 C 191.984375 194.617188 188.246094 195.023438 0.00390625 303.707031 C 188.246094 195.023438 190.46875 191.992188 81.785156 191.992188 C 190.46875 191.992188 188.246094 188.960938 0.00390625 80.277344 C 188.246094 188.960938 191.980469 189.367188 137.640625 95.246094 C 191.984375 189.367188 193.5 185.929688 193.5 -31.433594 Z M 193.5 -31.433594 " fill-opacity="1" fill-rule="nonzero"/></svg>