<svg width="15" height="19" viewBox="0 0 15 19" fill="none" xmlns="http://www.w3.org/2000/svg">
<path d="M14.1663 10.0003C14.1663 14.167 11.2497 16.2503 7.78301 17.4586C7.60148 17.5201 7.40429 17.5172 7.22467 17.4503C3.74967 16.2503 0.833008 14.167 0.833008 10.0003V4.16696C0.833008 3.94595 0.920805 3.73398 1.07709 3.5777C1.23337 3.42142 1.44533 3.33363 1.66634 3.33363C3.33301 3.33363 5.41634 2.33363 6.86634 1.06696C7.04289 0.916126 7.26747 0.833252 7.49967 0.833252C7.73188 0.833252 7.95646 0.916126 8.13301 1.06696C9.59134 2.34196 11.6663 3.33363 13.333 3.33363C13.554 3.33363 13.766 3.42142 13.9223 3.5777C14.0785 3.73398 14.1663 3.94595 14.1663 4.16696V10.0003Z" stroke="white" stroke-opacity="0.7" stroke-width="1.66667" stroke-linecap="round" stroke-linejoin="round"/>
</svg>
