<svg width="20" height="20" viewBox="0 0 20 20" fill="none" xmlns="http://www.w3.org/2000/svg">
<path d="M5 9.16699H8.33333" stroke="white" stroke-opacity="0.7" stroke-width="1.66667" stroke-linecap="round" stroke-linejoin="round"/>
<path d="M6.66602 7.5V10.8333" stroke="white" stroke-opacity="0.7" stroke-width="1.66667" stroke-linecap="round" stroke-linejoin="round"/>
<path d="M12.5 10H12.5083" stroke="white" stroke-opacity="0.7" stroke-width="1.66667" stroke-linecap="round" stroke-linejoin="round"/>
<path d="M15 8.33301H15.0083" stroke="white" stroke-opacity="0.7" stroke-width="1.66667" stroke-linecap="round" stroke-linejoin="round"/>
<path d="M14.4327 4.16699H5.56602C4.74125 4.16718 3.94584 4.47314 3.33354 5.02571C2.72125 5.57829 2.33555 6.33824 2.25102 7.15866C2.24602 7.20199 2.24268 7.24283 2.23685 7.28533C2.16935 7.84699 1.66602 12.047 1.66602 13.3337C1.66602 13.9967 1.92941 14.6326 2.39825 15.1014C2.86709 15.5703 3.50297 15.8337 4.16602 15.8337C4.99935 15.8337 5.41602 15.417 5.83268 15.0003L7.01102 13.822C7.3235 13.5094 7.74736 13.3338 8.18935 13.3337H11.8093C12.2513 13.3338 12.6752 13.5094 12.9877 13.822L14.166 15.0003C14.5827 15.417 14.9993 15.8337 15.8327 15.8337C16.4957 15.8337 17.1316 15.5703 17.6004 15.1014C18.0693 14.6326 18.3327 13.9967 18.3327 13.3337C18.3327 12.0462 17.8293 7.84699 17.7618 7.28533C17.756 7.24366 17.7527 7.20199 17.7477 7.15949C17.6633 6.33892 17.2777 5.57877 16.6654 5.02602C16.0531 4.47328 15.2576 4.16721 14.4327 4.16699Z" stroke="white" stroke-opacity="0.7" stroke-width="1.66667" stroke-linecap="round" stroke-linejoin="round"/>
</svg>
