<svg width="20" height="20" viewBox="0 0 20 20" fill="none" xmlns="http://www.w3.org/2000/svg">
<path d="M5.83398 2.5H14.1673C14.3883 2.5 14.6003 2.5878 14.7566 2.74408C14.9129 2.90036 15.0007 3.11232 15.0007 3.33333V16.6667C15.0007 16.8877 14.9129 17.0996 14.7566 17.2559C14.6003 17.4122 14.3883 17.5 14.1673 17.5H5.83398C5.61297 17.5 5.40101 17.4122 5.24473 17.2559C5.08845 17.0996 5.00065 16.8877 5.00065 16.6667V3.33333C5.00065 3.11232 5.08845 2.90036 5.24473 2.74408C5.40101 2.5878 5.61297 2.5 5.83398 2.5Z" stroke="white" stroke-opacity="0.7" stroke-width="1.66667" stroke-linecap="round" stroke-linejoin="round"/>
<path d="M8.33398 6.66699H11.6673" stroke="white" stroke-opacity="0.7" stroke-width="1.66667" stroke-linecap="round" stroke-linejoin="round"/>
<path d="M8.33398 10H11.6673" stroke="white" stroke-opacity="0.7" stroke-width="1.66667" stroke-linecap="round" stroke-linejoin="round"/>
<path d="M8.33398 13.333H11.6673" stroke="white" stroke-opacity="0.7" stroke-width="1.66667" stroke-linecap="round" stroke-linejoin="round"/>
<path d="M3.33398 6.66699H3.34232" stroke="white" stroke-opacity="0.7" stroke-width="1.66667" stroke-linecap="round" stroke-linejoin="round"/>
<path d="M3.33398 10H3.34232" stroke="white" stroke-opacity="0.7" stroke-width="1.66667" stroke-linecap="round" stroke-linejoin="round"/>
<path d="M3.33398 13.333H3.34232" stroke="white" stroke-opacity="0.7" stroke-width="1.66667" stroke-linecap="round" stroke-linejoin="round"/>
</svg>
