<svg width="20" height="20" viewBox="0 0 20 20" fill="none" xmlns="http://www.w3.org/2000/svg">
<path d="M8.05991 3.44712C8.10582 2.96407 8.33019 2.51549 8.68916 2.18902C9.04813 1.86255 9.51593 1.68164 10.0012 1.68164C10.4864 1.68164 10.9542 1.86255 11.3132 2.18902C11.6721 2.51549 11.8965 2.96407 11.9424 3.44712C11.97 3.75916 12.0724 4.05997 12.2409 4.32407C12.4093 4.58817 12.639 4.80779 12.9103 4.96435C13.1816 5.12091 13.4867 5.20979 13.7997 5.22347C14.1126 5.23715 14.4243 5.17523 14.7082 5.04295C15.1492 4.84277 15.6488 4.8138 16.1099 4.96169C16.571 5.10958 16.9606 5.42374 17.2028 5.84304C17.4451 6.26233 17.5226 6.75676 17.4204 7.23009C17.3182 7.70343 17.0436 8.1218 16.6499 8.40378C16.3936 8.58366 16.1843 8.82262 16.0398 9.10047C15.8954 9.37832 15.8199 9.68687 15.8199 10C15.8199 10.3132 15.8954 10.6217 16.0398 10.8996C16.1843 11.1774 16.3936 11.4164 16.6499 11.5963C17.0436 11.8783 17.3182 12.2966 17.4204 12.77C17.5226 13.2433 17.4451 13.7377 17.2028 14.157C16.9606 14.5763 16.571 14.8905 16.1099 15.0384C15.6488 15.1863 15.1492 15.1573 14.7082 14.9571C14.4243 14.8248 14.1126 14.7629 13.7997 14.7766C13.4867 14.7903 13.1816 14.8792 12.9103 15.0357C12.639 15.1923 12.4093 15.4119 12.2409 15.676C12.0724 15.9401 11.97 16.2409 11.9424 16.553C11.8965 17.036 11.6721 17.4846 11.3132 17.8111C10.9542 18.1375 10.4864 18.3184 10.0012 18.3184C9.51593 18.3184 9.04813 18.1375 8.68916 17.8111C8.33019 17.4846 8.10582 17.036 8.05991 16.553C8.03236 16.2408 7.92999 15.9399 7.76146 15.6757C7.59294 15.4115 7.36322 15.1918 7.09177 15.0352C6.82032 14.8786 6.51513 14.7898 6.20206 14.7762C5.88898 14.7626 5.57724 14.8247 5.29324 14.9571C4.85232 15.1573 4.35268 15.1863 3.89158 15.0384C3.43047 14.8905 3.04089 14.5763 2.79864 14.157C2.5564 13.7377 2.47884 13.2433 2.58104 12.77C2.68325 12.2966 2.95791 11.8783 3.35158 11.5963C3.60793 11.4164 3.81718 11.1774 3.96165 10.8996C4.10611 10.6217 4.18154 10.3132 4.18154 10C4.18154 9.68687 4.10611 9.37832 3.96165 9.10047C3.81718 8.82262 3.60793 8.58366 3.35158 8.40378C2.95846 8.12166 2.68428 7.70345 2.58233 7.23044C2.48037 6.75743 2.55792 6.2634 2.7999 5.84438C3.04188 5.42536 3.431 5.11127 3.89165 4.96315C4.3523 4.81504 4.85156 4.84348 5.29241 5.04295C5.57637 5.17523 5.88803 5.23715 6.20099 5.22347C6.51396 5.20979 6.81902 5.12091 7.09036 4.96435C7.36169 4.80779 7.59132 4.58817 7.7598 4.32407C7.92827 4.05997 8.03064 3.75916 8.05824 3.44712" stroke="white" stroke-opacity="0.7" stroke-width="1.66667" stroke-linecap="round" stroke-linejoin="round"/>
<path d="M10 12.5C11.3807 12.5 12.5 11.3807 12.5 10C12.5 8.61929 11.3807 7.5 10 7.5C8.61929 7.5 7.5 8.61929 7.5 10C7.5 11.3807 8.61929 12.5 10 12.5Z" stroke="white" stroke-opacity="0.7" stroke-width="1.66667" stroke-linecap="round" stroke-linejoin="round"/>
</svg>
