<svg width="20" height="20" viewBox="0 0 20 20" fill="none" xmlns="http://www.w3.org/2000/svg">
<path d="M8.33398 12.2168V13.5718C8.33084 13.8573 8.25439 14.1372 8.11197 14.3847C7.96955 14.6322 7.76593 14.839 7.52065 14.9851C6.99994 15.3708 6.57635 15.8726 6.28356 16.4507C5.99076 17.0288 5.83683 17.6671 5.83398 18.3151" stroke="white" stroke-opacity="0.7" stroke-width="1.66667" stroke-linecap="round" stroke-linejoin="round"/>
<path d="M11.666 12.2168V13.5718C11.6692 13.8573 11.7456 14.1372 11.888 14.3847C12.0305 14.6322 12.2341 14.839 12.4793 14.9851C13.0001 15.3708 13.4236 15.8726 13.7164 16.4507C14.0092 17.0288 14.1632 17.6671 14.166 18.3151" stroke="white" stroke-opacity="0.7" stroke-width="1.66667" stroke-linecap="round" stroke-linejoin="round"/>
<path d="M15 7.49967H16.25C16.8025 7.49967 17.3324 7.28018 17.7231 6.88948C18.1138 6.49878 18.3333 5.96888 18.3333 5.41634C18.3333 4.86381 18.1138 4.3339 17.7231 3.9432C17.3324 3.5525 16.8025 3.33301 16.25 3.33301H15" stroke="white" stroke-opacity="0.7" stroke-width="1.66667" stroke-linecap="round" stroke-linejoin="round"/>
<path d="M3.33398 18.333H16.6673" stroke="white" stroke-opacity="0.7" stroke-width="1.66667" stroke-linecap="round" stroke-linejoin="round"/>
<path d="M5 7.50033C5 8.82641 5.52678 10.0982 6.46447 11.0359C7.40215 11.9735 8.67392 12.5003 10 12.5003C11.3261 12.5003 12.5979 11.9735 13.5355 11.0359C14.4732 10.0982 15 8.82641 15 7.50033V2.50033C15 2.27931 14.9122 2.06735 14.7559 1.91107C14.5996 1.75479 14.3877 1.66699 14.1667 1.66699H5.83333C5.61232 1.66699 5.40036 1.75479 5.24408 1.91107C5.0878 2.06735 5 2.27931 5 2.50033V7.50033Z" stroke="white" stroke-opacity="0.7" stroke-width="1.66667" stroke-linecap="round" stroke-linejoin="round"/>
<path d="M4.99935 7.49967H3.74935C3.19681 7.49967 2.66691 7.28018 2.27621 6.88948C1.88551 6.49878 1.66602 5.96888 1.66602 5.41634C1.66602 4.86381 1.88551 4.3339 2.27621 3.9432C2.66691 3.5525 3.19681 3.33301 3.74935 3.33301H4.99935" stroke="white" stroke-opacity="0.7" stroke-width="1.66667" stroke-linecap="round" stroke-linejoin="round"/>
</svg>
